<!DOCTYPE svg PUBLIC "-//W3C//DTD SVG 20010904//EN" "http://www.w3.org/TR/2001/REC-SVG-20010904/DTD/svg10.dtd">
<svg version="1.0" xmlns="http://www.w3.org/2000/svg" width="200px" height="200px" viewBox="0 0 2000 2000" preserveAspectRatio="xMidYMid meet">
<g id="layer101" fill="#000000" stroke="none">
 <path d="M770 1105 l0 -175 50 0 50 0 0 175 0 175 -50 0 -50 0 0 -175z"/>
 <path d="M890 1120 l0 -160 70 0 70 0 0 160 0 160 -70 0 -70 0 0 -160z"/>
 <path d="M1050 1260 c0 -17 7 -20 50 -20 43 0 50 3 50 20 0 17 -7 20 -50 20 -43 0 -50 -3 -50 -20z"/>
 <path d="M1216 1254 c-3 -16 -15 -98 -27 -183 -24 -171 -24 -171 44 -171 20 0 37 2 37 4 0 2 12 83 26 181 14 97 23 179 20 182 -3 3 -25 8 -49 10 -43 5 -45 4 -51 -23z"/>
 <path d="M1056 1188 c-3 -18 -7 -111 -10 -205 l-5 -173 48 0 48 0 7 92 c3 50 6 142 6 205 l0 113 -45 0 c-42 0 -44 -1 -49 -32z"/>
 <path d="M1374 1151 c-48 -21 -67 -85 -44 -146 20 -52 125 -68 153 -23 15 23 1 48 -28 48 -25 0 -33 -14 -15 -25 16 -10 1 -25 -25 -25 -31 0 -60 50 -50 89 14 55 67 80 95 46 9 -11 16 -13 24 -5 27 27 -64 60 -110 41z"/>
 <path d="M100 1140 c0 -5 5 -10 10 -10 6 0 10 -32 10 -75 0 -43 -4 -75 -10 -75 -5 0 -10 -4 -10 -10 0 -14 114 -12 128 2 16 16 16 68 0 68 -7 0 -2 7 10 16 12 8 22 26 22 39 0 36 -36 55 -102 55 -32 0 -58 -4 -58 -10z m111 -32 c10 -18 8 -24 -7 -35 -31 -22 -44 -16 -44 22 0 28 4 35 20 35 10 0 25 -10 31 -22z m-16 -98 c0 -16 -6 -26 -17 -28 -14 -3 -18 3 -18 28 0 25 4 31 18 28 11 -2 17 -12 17 -28z"/>
 <path d="M303 1142 c-17 -11 -33 -59 -26 -79 12 -35 36 -53 69 -53 64 0 98 76 54 120 -20 20 -74 27 -97 12z m72 -41 c12 -58 -35 -98 -55 -46 -13 33 3 75 29 75 13 0 21 -9 26 -29z"/>
 <path d="M446 1128 c-22 -31 -20 -60 5 -92 17 -22 28 -26 57 -24 65 6 92 77 46 122 -24 25 -90 21 -108 -6z m86 -23 c13 -30 -3 -75 -27 -75 -8 0 -21 11 -27 25 -13 30 3 75 27 75 8 0 21 -11 27 -25z"/>
 <path d="M580 1140 c0 -5 5 -10 10 -10 15 0 13 -167 -2 -173 -17 -6 -8 -14 25 -22 l27 -7 0 67 c0 59 2 66 15 55 8 -7 15 -19 15 -26 0 -9 12 -14 35 -14 19 0 35 5 35 10 0 6 -6 10 -13 10 -8 0 -22 9 -33 21 -19 21 -18 21 19 55 20 19 37 36 37 39 0 3 -12 5 -27 5 -19 0 -37 -10 -55 -32 -26 -31 -27 -31 -28 -10 0 12 5 22 10 22 6 0 10 5 10 10 0 6 -18 10 -40 10 -22 0 -40 -4 -40 -10z"/>
 <path d="M1506 1143 c-12 -12 -6 -54 9 -59 11 -5 12 -10 3 -24 -19 -30 -3 -50 40 -50 50 0 62 14 62 72 0 26 5 48 10 48 6 0 10 4 10 9 0 10 -124 14 -134 4z m58 -19 c9 -3 16 -13 16 -21 0 -20 -34 -12 -38 10 -4 19 -1 20 22 11z m16 -74 c0 -13 -7 -20 -20 -20 -22 0 -23 1 -14 24 9 23 34 20 34 -4z"/>
 <path d="M1657 1143 c-13 -12 -7 -43 8 -43 8 0 15 7 15 15 0 8 9 15 19 15 35 0 32 -18 -6 -37 -64 -31 -51 -88 19 -81 25 2 34 8 36 26 2 15 -2 22 -12 22 -9 0 -16 -7 -16 -15 0 -16 -25 -21 -34 -6 -4 5 11 18 31 28 64 31 53 83 -17 83 -20 0 -40 -3 -43 -7z"/>
 <path d="M1789 1134 c-19 -23 -16 -80 6 -104 20 -22 74 -27 93 -8 7 7 12 22 12 35 0 21 -5 23 -44 23 -39 0 -44 2 -39 20 6 23 41 36 56 21 15 -15 27 -14 27 3 0 29 -88 37 -111 10z m71 -90 c0 -9 -7 -14 -17 -12 -25 5 -28 28 -4 28 12 0 21 -6 21 -16z"/>
 <path d="M890 875 l0 -35 70 0 70 0 0 35 0 35 -70 0 -70 0 0 -35z"/>
 <path d="M1156 859 c-8 -40 5 -50 59 -47 37 3 40 5 43 36 3 29 1 32 -25 32 -15 0 -37 3 -49 6 -18 5 -22 0 -28 -27z"/>
 <path d="M770 815 l0 -35 50 0 50 0 0 35 0 35 -50 0 -50 0 0 -35z"/>
 <path d="M1038 760 c-3 -17 -2 -32 0 -35 3 -3 27 -5 54 -5 l48 0 0 35 0 35 -49 0 c-47 0 -49 -1 -53 -30z"/>
 </g>

</svg>